<?xml version="1.0" encoding="UTF-8"?>
<svg width="85px" height="44px" viewBox="0 0 85 44" version="1.1" xmlns="http://www.w3.org/2000/svg" xmlns:xlink="http://www.w3.org/1999/xlink">
    <!-- Generator: Sketch 50 (54983) - http://www.bohemiancoding.com/sketch -->
    <title>logo-V1-sans-nous</title>
    <desc>Created with Sketch.</desc>
    <defs></defs>
    <g id="V1" stroke="none" stroke-width="1" fill="none" fill-rule="evenodd">
        <g id="Desktop" transform="translate(-415.000000, -60.000000)" fill-rule="nonzero">
            <g id="logo-V1-sans-nous" transform="translate(415.000000, 60.000000)">
                <g id="Group" transform="translate(48.000000, 0.000000)" fill="#000000">
                    <path d="M13.8791444,24.1899543 L13.8791444,8.95068493 C13.8791444,5.30410959 12.6090909,4.08858447 10.2721925,4.08858447 C7.8540107,4.08858447 5.22245989,6.25844749 5.22245989,8.87031963 L5.22245989,14.4657534 L0.121925134,16.083105 L0.121925134,0.562557078 L4.77540107,0.562557078 L4.99893048,4.03835616 C6.26898396,1.64748858 9.1342246,0.0401826484 12.0299465,0.0401826484 C17.0796791,0.0401826484 18.9695187,3.51598174 18.9695187,8.16712329 L18.9695187,22.5726027 L13.8791444,24.1899543 Z" id="Shape"></path>
                    <path d="M14.2754011,43.4273973 L14.0518717,39.9515982 C12.7818182,42.3424658 9.87593583,43.9497717 7.02085561,43.9497717 C1.97112299,43.9497717 0.0812834225,40.4739726 0.0812834225,35.8228311 L0.0812834225,19.8 L5.18181818,18.1826484 L5.18181818,35.0493151 C5.18181818,38.6958904 6.41122995,39.9114155 8.78877005,39.9114155 C11.2069519,39.9114155 13.8385027,37.7415525 13.8385027,35.1296804 L13.8385027,27.9068493 L18.9390374,26.2894977 L18.9390374,43.4374429 L14.2754011,43.4374429 L14.2754011,43.4273973 Z" id="Shape"></path>
                </g>
                <g id="Group" fill="#29323A" fill-opacity="0.858950408">
                    <path d="M11.3534994,19.85 C7.47153025,19.85 4.59786477,18.21 3.8113879,17.73 L4.63819692,14.27 C6.16073547,15.18 8.47983393,16.35 11.2627521,16.35 C13.2692764,16.35 14.6607355,15.74 14.6607355,14.19 C14.6607355,12.85 13.2188612,12.37 10.6476868,11.77 C6.02965599,10.78 4.37603796,8.35 4.37603796,5.72 C4.37603796,2.77 6.68505338,0 11.78707,0 C14.8825623,0 17.5848161,1.34 18.1998814,1.69 L17.3730724,4.98 C15.7597865,4.03 13.7935943,3.42 11.9181495,3.42 C9.871293,3.42 8.86298932,4.11 8.86298932,5.24 C8.86298932,6.49 10.1737841,7.06 12.1803084,7.53 C17.1512456,8.57 19.1577699,10.86 19.1577699,13.37 C19.1577699,17.38 16.1933571,19.85 11.3534994,19.85 Z" id="Shape"></path>
                    <path d="M37.7710558,19.24 L37.5996441,16.26 C36.0266904,18.55 33.2437722,19.76 30.5818505,19.76 C25.4798339,19.76 21.7289442,15.52 21.7289442,9.9 C21.7289442,4.28 25.4798339,0.04 30.5818505,0.04 C33.2437722,0.04 36.0266904,1.25 37.5996441,3.54 L37.7710558,0.56 L42.3487544,0.56 L42.3487544,19.24 L37.7710558,19.24 Z M32.1447212,3.76 C29.1803084,3.76 26.7805457,6.05 26.7805457,9.9 C26.7805457,13.75 29.1803084,16.04 32.1447212,16.04 C35.109134,16.04 37.5088968,13.75 37.5088968,9.9 C37.5088968,6.05 35.109134,3.76 32.1447212,3.76 Z" id="Shape"></path>
                    <path d="M77.1856465,19.85 C73.3036773,19.85 70.4300119,18.21 69.643535,17.73 L70.470344,14.27 C71.9928826,15.18 74.311981,16.35 77.0948992,16.35 C79.1014235,16.35 80.4928826,15.74 80.4928826,14.19 C80.4928826,12.85 79.0510083,12.37 76.4798339,11.77 C71.8618031,10.78 70.2081851,8.35 70.2081851,5.72 C70.2081851,2.78 72.5172005,0.01 77.6192171,0.01 C80.7147094,0.01 83.4169632,1.35 84.0320285,1.7 L83.2052195,4.99 C81.5919336,4.04 79.6257414,3.43 77.7502966,3.43 C75.7034401,3.43 74.6951364,4.12 74.6951364,5.25 C74.6951364,6.5 76.0059312,7.07 78.0124555,7.54 C82.9833926,8.58 84.989917,10.87 84.989917,13.38 C84.989917,17.38 82.0255042,19.85 77.1856465,19.85 Z" id="Shape"></path>
                    <path d="M13.6625148,43.23 L13.6625148,32.89 C13.6625148,29.26 12.4021352,28.05 10.0830368,28.05 C7.68327402,28.05 5.0717675,30.21 5.0717675,32.81 L5.0717675,43.23 L0.0100830368,43.23 L0.0100830368,24.55 L4.63819692,24.55 L4.86002372,28.01 C6.12040332,25.63 8.95373665,24.03 11.8374852,24.03 C16.8487544,24.03 18.7241993,27.49 18.7241993,32.12 L18.7241993,43.23 L13.6625148,43.23 Z" id="Shape"></path>
                    <path d="M33.0219454,43.92 C26.9217082,43.92 22.4246738,39.55 22.4246738,33.89 C22.4246738,28.27 26.9116251,23.86 33.0219454,23.86 C39.0818505,23.86 43.5688019,28.27 43.5688019,33.89 C43.5688019,39.55 39.0818505,43.92 33.0219454,43.92 Z M33.0219454,27.53 C29.623962,27.53 27.3956109,30.12 27.3956109,33.89 C27.3956109,37.69 29.6642942,40.25 33.0219454,40.25 C36.3795967,40.25 38.5978648,37.7 38.5978648,33.89 C38.5978648,30.13 36.3795967,27.53 33.0219454,27.53 Z" id="Shape"></path>
                    <path d="M77.1856465,43.83 C73.3036773,43.83 70.4300119,42.19 69.643535,41.71 L70.470344,38.25 C71.9928826,39.16 74.311981,40.33 77.0948992,40.33 C79.1014235,40.33 80.4928826,39.72 80.4928826,38.17 C80.4928826,36.83 79.0510083,36.35 76.4798339,35.75 C71.8618031,34.76 70.198102,32.33 70.198102,29.7 C70.198102,26.76 72.5071174,23.99 77.609134,23.99 C80.7046263,23.99 83.4068802,25.33 84.0219454,25.68 L83.1951364,28.97 C81.5818505,28.02 79.6156584,27.41 77.7402135,27.41 C75.6933571,27.41 74.6850534,28.1 74.6850534,29.23 C74.6850534,30.48 75.9958482,31.05 78.0023725,31.52 C82.9733096,32.56 84.9798339,34.85 84.9798339,37.36 C84.989917,41.37 82.0255042,43.83 77.1856465,43.83 Z" id="Shape"></path>
                </g>
            </g>
        </g>
    </g>
</svg>